PathFileType	4	(X/Y/Z)	D:\TRACE\v60_Jaco2_6-2-23\BothDRS_Motion3_6-platform.trc
DataRate	CameraRate	NumFrames	NumMarkers	Units	OrigDataRate	OrigDataStartFrame	OrigNumFrames
100.00	100.00	      67	5	mm	100.00	6126	      7000
Frame#	Time	Left_Front			Right_Front			Left_Aft			Right_Aft			Post			
		X1	Y1	Z1	X2	Y2	Z2	X3	Y3	Z3	X4	Y4	Z4	X5	Y5	Z5	

6126	61.250	-779.94830	21.92473	-647.72015	790.67853	19.92293	-624.94958	-710.67712	3.42849	488.42535	703.28778	-0.95685	591.68915	14.34773	1325.04590	-937.25977	
6127	61.260	-779.84088	21.52668	-647.82672	790.80341	19.63233	-624.99170	-710.52795	3.68955	488.34375	703.33734	-0.77295	591.61420	14.90947	1324.29565	-937.86230	
6128	61.270	-779.55243	20.99532	-647.95465	791.08643	19.29844	-625.10321	-710.42267	3.85201	488.31934	703.40033	-0.55149	591.51935	15.50757	1323.71716	-938.52399	
6129	61.280	-779.25610	20.70017	-648.04456	791.26111	19.00517	-625.28662	-710.28168	4.14260	488.25403	703.50372	-0.33430	591.38068	15.67366	1323.25330	-939.20868	
6130	61.290	-779.01532	20.58751	-648.10382	791.43298	18.65156	-625.38605	-710.04083	4.41701	488.23306	703.82544	-0.06730	591.26520	15.78499	1322.89795	-939.89764	
6131	61.300	-778.82300	20.45737	-648.16156	791.56549	18.42753	-625.40662	-709.97296	4.76739	488.27371	704.18628	0.22251	591.21204	15.61912	1322.49426	-940.77728	
6132	61.310	-778.67200	20.10978	-648.24713	791.72388	18.25213	-625.53491	-709.63385	4.78026	488.12399	704.35248	0.39540	591.14050	15.77507	1322.09485	-941.88464	
6133	61.320	-778.53363	19.54238	-648.36481	791.94257	17.98877	-625.62396	-709.43268	4.85680	488.02112	704.52112	0.55061	591.03204	16.30065	1321.56970	-942.64716	
6134	61.330	-778.34143	19.25891	-648.48181	792.24982	17.56047	-625.66711	-709.25018	4.90574	487.93216	704.66736	0.86110	591.00842	16.17616	1321.20056	-943.27472	
6135	61.340	-778.17987	18.98787	-648.67310	792.35767	17.20306	-625.79224	-709.01190	5.08824	487.80734	704.83154	1.14620	590.92932	16.27303	1320.76599	-944.02344	
6136	61.350	-778.05798	18.80006	-648.74530	792.61975	17.11098	-625.93005	-708.76166	5.40066	487.68250	704.97107	1.34413	590.89624	16.93005	1320.42773	-945.03284	
6137	61.360	-777.94452	18.69290	-648.83740	792.65204	16.63789	-625.98102	-708.64417	5.67123	487.64212	705.13336	1.59822	590.92059	17.11064	1320.08777	-945.51947	
6138	61.370	-777.89026	18.37709	-648.93597	792.71771	16.25722	-626.00177	-708.41534	5.87353	487.66870	705.24420	1.95123	590.89581	17.19946	1319.65845	-946.19989	
6139	61.380	-777.80365	18.12364	-649.09583	792.87439	16.00689	-626.06836	-708.20129	5.98782	487.64572	705.40430	2.05663	590.78284	17.24413	1319.21472	-946.50763	
6140	61.390	-777.72034	17.90338	-649.09357	793.04431	15.91172	-626.09607	-708.04419	6.06985	487.67465	705.59021	2.30606	590.72980	17.46983	1318.66113	-947.16895	
6141	61.400	-777.32666	17.71960	-649.09418	793.29449	15.70192	-626.11890	-707.77795	6.08099	487.71027	705.86597	2.51729	590.70441	17.81316	1318.44958	-947.55243	
6142	61.410	-777.09888	17.61361	-649.11078	793.46619	15.57652	-626.10669	-707.84003	6.17102	487.70538	706.04187	2.65319	590.75604	17.96202	1318.34192	-947.95288	
6143	61.420	-776.97369	17.54303	-649.05737	793.59167	15.50784	-626.12195	-707.70703	6.23254	487.68558	706.14526	2.70439	590.70294	18.01414	1318.21216	-948.04340	
6144	61.430	-776.85901	17.36019	-648.99530	793.72961	15.42252	-626.12610	-707.63831	6.32090	487.64886	706.17798	2.72465	590.59412	18.04313	1318.18262	-948.19324	
6145	61.440	-776.81989	17.20700	-649.08923	793.77295	15.32402	-626.12439	-707.56622	6.40429	487.60223	706.18060	2.85602	590.45233	17.98820	1318.04944	-948.24896	
6146	61.450	-776.71979	17.11913	-649.07135	793.92450	15.15441	-626.08490	-707.51892	6.48532	487.58527	706.06219	2.91163	590.57056	17.97959	1317.97021	-948.29132	
6147	61.460	-776.50916	16.91542	-648.95776	793.99969	15.03633	-626.11310	-707.47150	6.55618	487.57162	706.25201	3.03531	590.56335	18.15800	1317.77356	-948.14594	
6148	61.470	-776.40466	16.72193	-648.93903	794.14111	14.96551	-626.05066	-707.33417	6.66872	487.51910	706.43274	3.17674	590.60797	18.43265	1317.42773	-948.05719	
6149	61.480	-776.32867	16.65613	-648.92438	794.16016	14.82738	-626.11322	-707.16077	6.82289	487.51202	706.48224	3.21522	590.53363	18.55408	1317.26746	-948.10590	
6150	61.490	-776.31543	16.49238	-648.91827	794.14941	14.69910	-626.23792	-707.02673	6.94016	487.48444	706.62445	3.33135	590.34399	18.52620	1317.09448	-948.26697	
6151	61.500	-776.29810	16.46524	-648.93854	794.18268	14.62802	-626.27283	-706.92108	6.97825	487.47464	706.58667	3.36559	590.27570	18.57481	1316.84570	-948.64032	
6152	61.510	-776.27185	16.47038	-648.97095	794.20465	14.57489	-626.29297	-707.06708	7.14503	487.60986	706.61444	3.35198	590.27814	18.45652	1316.73633	-949.04639	
6153	61.520	-776.23364	16.45922	-648.96997	794.21466	14.53462	-626.36914	-707.06775	7.26932	487.43860	706.67126	3.33768	590.28821	18.37201	1316.69763	-949.49060	
6154	61.530	-776.25671	16.47042	-648.98126	794.28442	14.61833	-626.33325	-707.05762	7.25304	487.51773	706.68585	3.34608	590.33069	18.27997	1316.71667	-950.21094	
6155	61.540	-776.26099	16.44380	-648.92438	794.29736	14.66648	-626.25494	-706.89905	7.08124	487.48013	706.63318	3.37316	590.28162	18.32951	1316.69739	-950.50421	
6156	61.550	-776.25226	16.44171	-648.93182	794.29224	14.67573	-626.23773	-706.98297	7.11206	487.45932	706.68311	3.31922	590.31171	18.37349	1316.76746	-950.69769	
6157	61.560	-776.26917	16.45401	-648.92633	794.25177	14.65913	-626.24066	-706.95227	7.06186	487.45853	706.60242	3.25599	590.45490	18.35028	1316.87061	-950.76154	
6158	61.570	-776.27191	16.46939	-648.91357	794.63745	14.59986	-626.60651	-706.92261	6.98941	487.42410	706.60370	3.24360	590.44843	18.33044	1316.82678	-950.66656	
6159	61.580	-776.28235	16.54359	-648.94080	794.30823	14.72172	-626.21490	-706.94025	7.02495	487.42755	706.71442	3.27566	590.34003	18.28290	1316.87537	-950.46027	
6160	61.590	-776.29901	16.59621	-648.95422	794.65289	14.65124	-626.61963	-706.93573	7.06070	487.39606	706.59943	3.24193	590.50226	18.21046	1316.99768	-950.13458	
6161	61.600	-776.28265	16.54380	-648.93622	794.27307	14.77351	-626.24225	-706.92499	7.01887	487.40591	706.66473	3.19993	590.46429	18.46190	1317.18604	-949.30676	
6162	61.610	-776.26019	16.54271	-648.95117	794.38348	14.86918	-626.07489	-706.93732	6.94160	487.40527	706.80566	3.18753	590.35767	18.56448	1317.23877	-948.88928	
6163	61.620	-776.29572	16.65812	-648.95587	794.35724	14.86122	-626.17670	-706.95520	6.85481	487.43524	706.72522	3.13893	590.57629	18.54249	1317.40393	-948.35278	
6164	61.630	-776.32306	16.74741	-648.95850	794.43152	15.02907	-625.99200	-706.95178	6.65406	487.45114	706.74774	3.09455	590.61542	18.63078	1317.51978	-947.87042	
6165	61.640	-776.37421	16.97372	-648.98389	794.36591	15.14421	-626.04681	-707.01453	6.54843	487.50327	706.72766	2.99985	590.73840	18.44556	1317.77637	-947.66315	
6166	61.650	-776.47424	17.28745	-648.98077	794.35071	15.36327	-626.04834	-707.01288	6.28954	487.55240	706.67889	2.86124	590.73395	18.44619	1318.00842	-947.48114	
6167	61.660	-776.61554	17.51017	-648.85992	794.23016	15.54036	-626.02271	-707.18567	6.23182	487.52304	706.49414	2.63232	590.84613	18.32474	1318.34973	-947.21436	
6168	61.670	-776.78027	17.74448	-648.77753	794.00183	15.72122	-625.99438	-707.28137	6.06156	487.47812	706.57562	2.41312	590.78015	18.11927	1318.67358	-946.88458	
6169	61.680	-776.85376	17.86725	-648.73950	793.70691	15.95361	-626.06458	-707.42242	5.93900	487.62335	706.34357	2.21736	590.78766	17.90030	1319.02136	-946.70959	
6170	61.690	-777.16174	18.20882	-648.81207	793.58624	16.34080	-626.04181	-707.61237	5.89658	487.64795	706.11060	1.98531	590.82782	17.60738	1319.42334	-946.46680	
6171	61.700	-777.34894	18.48445	-648.82727	793.47858	16.74676	-625.77032	-707.69989	5.88107	487.68890	705.92957	1.78869	590.90442	17.53706	1319.77258	-946.16058	
6172	61.710	-777.52911	18.59029	-648.76239	793.38770	16.84545	-625.72528	-707.83868	5.79702	487.76553	705.77478	1.63771	590.89691	17.64030	1320.04871	-945.53772	
6173	61.720	-777.65717	18.67706	-648.75067	793.21936	16.98153	-625.71802	-708.12366	5.64449	487.69934	705.56677	1.49303	590.90820	17.60622	1320.15271	-945.05493	
6174	61.730	-777.81909	18.70480	-648.71625	792.94891	17.14484	-625.90222	-708.35394	5.42897	487.72919	705.66888	1.30597	590.75989	17.32746	1320.31543	-944.34583	
6175	61.740	-777.97015	18.91806	-648.73389	792.82196	17.20646	-625.88898	-708.71985	5.18295	487.78299	705.16821	1.23672	590.86554	16.75733	1320.41382	-943.52039	
6176	61.750	-778.09241	19.04793	-648.67706	792.48291	17.36660	-625.80786	-708.87177	5.13550	487.83124	705.05737	1.16119	590.93976	16.61270	1320.71265	-943.20056	
6177	61.760	-778.21863	19.18468	-648.55109	792.20306	17.66906	-625.74939	-709.08105	4.94482	487.94534	704.82037	0.97350	590.95709	16.45367	1321.22205	-942.72455	
6178	61.770	-778.39844	19.41896	-648.45190	792.15076	17.98514	-625.69287	-709.27612	4.85761	487.93509	704.63623	0.66337	590.99994	16.38663	1321.44360	-942.55371	
6179	61.780	-778.19659	19.72973	-648.01312	791.83856	18.19942	-625.66241	-709.46613	4.73424	488.04941	704.48096	0.44577	591.07379	16.11403	1321.89001	-942.41827	
6180	61.790	-778.30933	20.10400	-647.77759	791.56366	18.36389	-625.48590	-709.73444	4.53573	488.12766	704.23676	0.21621	591.18121	15.78506	1322.34985	-942.04608	
6181	61.800	-778.76410	20.52093	-647.79462	791.38135	18.74450	-625.34698	-709.99792	4.28691	488.22293	703.86841	-0.10172	591.24817	15.71103	1322.86206	-941.59869	
6182	61.810	-779.31854	20.95554	-647.90717	791.23895	19.17288	-625.22998	-710.28540	4.07289	488.25513	703.45959	-0.35209	591.41241	15.40551	1323.33240	-941.04114	
6183	61.820	-779.73041	21.38288	-647.95795	790.93341	19.51809	-625.09076	-710.47748	3.84696	488.31540	703.35223	-0.54713	591.50952	15.08145	1323.86194	-940.22992	
6184	61.830	-779.90137	21.71995	-647.87500	790.73993	19.66867	-625.04547	-710.56085	3.67925	488.33624	703.26428	-0.76139	591.58722	15.19571	1324.41870	-939.37671	
6185	61.840	-780.14862	21.81791	-647.84558	790.59607	19.92527	-624.90540	-710.89490	3.50945	488.38773	703.15533	-0.90548	591.63507	14.76720	1324.78943	-938.13983	
6186	61.850	-780.37006	21.99047	-647.84387	790.20477	20.15156	-624.98218	-711.22498	3.35849	488.46838	702.88318	-0.98184	591.73566	14.00300	1325.06506	-937.09906	
6187	61.860	-780.57062	22.17169	-647.87885	789.94708	20.34461	-624.98682	-711.42908	3.21758	488.50333	702.65289	-1.05125	591.81995	13.91824	1325.32666	-935.91919	
6188	61.870	-780.73712	22.37243	-647.99243	789.65497	20.62780	-625.04401	-711.63391	3.01210	488.55740	702.20459	-1.32796	591.77258	13.92380	1325.43542	-935.28778	
6189	61.880	-781.12628	22.81417	-648.06012	789.25037	20.99023	-625.06433	-711.62915	2.69174	488.52762	701.47961	-1.68571	591.38312	13.55622	1326.00391	-934.39984	
6190	61.890	-781.57465	23.14467	-647.86804	788.94983	21.29245	-624.96411	-711.99487	2.38686	488.70096	701.22107	-1.82445	591.41168	13.26319	1326.31982	-933.88696	
6191	61.900	-781.96924	23.38561	-647.58801	788.58801	21.41200	-624.79761	-712.23468	2.24573	488.80994	701.53162	-2.33667	591.14941	13.01159	1326.71326	-933.56317	
6192	61.910	-782.29877	23.68449	-647.28894	788.53265	21.62491	-624.70325	-712.65009	2.09247	488.96802	700.97638	-2.57854	591.79089	12.58727	1327.19421	-933.16260	
